<svg id="Layer_1" data-name="Layer 1" xmlns="http://www.w3.org/2000/svg" viewBox="0 0 395.67 432.14"><defs><style>.cls-1{fill:#cdd7de;}.cls-2{fill:#60aadd;}.cls-3{fill:#687781;}.cls-4{fill:#697881;}</style></defs><path class="cls-1" d="M290,257.55c-1.84,1.5-1.18,3.6-1.21,5.48-.41,21.46,0,43-1.41,64.38-1,15.75.49,31.56-1.86,47.23-.27,1.74-.69,3.45-1,5.18-2.71,12.62-6.09,25.06-10,37.36-2.71,8.45-7.06,16.17-10.1,24.46-3.43,2-4.11,7.31-9,7.65,1.86-23.83,1.48-47.7,1.25-71.56a168,168,0,0,0-3.19-32.33c-.59-2.89-.79-7.67-3.45-7.62-3.32.05-3.33,4.9-3.88,7.82a215.87,215.87,0,0,0-3.34,38.74c-.13,22.07-.57,44.15,1.92,66.14-4.87-1.11-5.68-6.66-9.62-8.79-2.75-6.67-5.67-13.27-8.21-20-5.12-13.61-8.35-27.79-12-41.85-1.65-10-1.89-20.12-1.94-30.14-.1-20.07-1.24-40.11-1.6-60.16-.19-11-.39-22-.76-33-.33-5.3-.84-10.6-1-15.91-.49-22.73-.78-45.46-1.34-68.18-.1-4.13,0-8.43-2-12.31,1.39-1.88,1-4.07,1.11-6.19.45-13-.45-26-1.09-38.94-1.18-24,8.07-44.38,21.49-63.37a64.34,64.34,0,0,1,13.6-14.25c6.47-4.91,10.77-4.41,17.4.26,6.43,4.54,10.68,10.87,15.09,17.06,9.51,13.35,16.66,28,18.59,44.31,1.57,13.2,1,26.66,0,40-.53,7-1.56,14.13.58,21.11-1.22.85-1.11,2.14-1.09,3.37.18,12.23-1.57,24.4-1.12,36.65a124.27,124.27,0,0,1-.23,16.49C289.3,230.29,289.89,243.92,290,257.55Zm-37.11-182c-14.42,0-23,5-29.17,14.6-2.22,3.47.71,4.64,2.27,6.56,1.78,2.19,3.12,1.07,4.88-.21,12.39-9,25.35-9.12,37.53-.25,2.11,1.54,3.6,2.44,5.76,0,1.9-2.13,3.57-3.7,1.41-6.76C269.31,80.6,261.11,75.47,252.92,75.55Z" transform="translate(-52.16 -33.93)"/><path class="cls-2" d="M206.32,160.15c2,3.88,1.9,8.18,2,12.31.56,22.72.85,45.45,1.34,68.18.11,5.31.62,10.61,1,15.91C169.76,278,128.69,299,89,322.6c-6.92,4.12-14.14,7.45-22.6,7-9.54-.46-15.77-8-13.91-17.4A36.2,36.2,0,0,1,63,293.41c17.08-17,34.84-33.22,52.56-49.51,2.22-2,4.21-4.33,6.3-6.5,13.93-12,27.32-24.56,40.55-37.31Z" transform="translate(-52.16 -33.93)"/><path class="cls-2" d="M290,257.55c-.14-13.63-.73-27.26.61-40.89a124.27,124.27,0,0,0,.23-16.49c-.45-12.25,1.3-24.42,1.12-36.65,0-1.23-.13-2.52,1.09-3.37l44.65,40.74c6.3,6,12.33,12.35,19,18,7.19,6.06,13,13.7,21.2,18.56,7.29,9.32,16.87,16.28,25.25,24.48,12,11.7,24.32,23,36.36,34.67a28.75,28.75,0,0,1,7.76,14.34c3.34,13.91-9,20-18.49,18.22-12.77-2.32-23.22-9.66-34.3-15.61q-51-27.39-102-54.94A25.24,25.24,0,0,0,290,257.55Z" transform="translate(-52.16 -33.93)"/><path class="cls-2" d="M214.91,379.82c3.61,14.06,6.84,28.24,12,41.85,2.54,6.75,5.46,13.35,8.21,20-15.07,3.11-30.11,6.38-45.23,9.24-6,1.14-12.16,2.6-18.39.53-6.58-2.18-11.9-5.65-13.79-12.77-1.73-6.57,1.58-11.41,6-15.54C180,407.83,197.36,393.72,214.91,379.82Z" transform="translate(-52.16 -33.93)"/><path class="cls-2" d="M264.38,441.64c3-8.29,7.39-16,10.1-24.46,3.94-12.3,7.32-24.74,10-37.36,18.31,14.15,36.37,28.62,52.87,44.86,8.43,8.3,5.89,19.65-4.75,25.11-7.55,3.88-15.25,2.7-22.93,1.19C294.56,448,279.48,444.77,264.38,441.64Z" transform="translate(-52.16 -33.93)"/><path class="cls-3" d="M244.7,450.48c-2.49-22-2-44.07-1.92-66.14a215.87,215.87,0,0,1,3.34-38.74c.55-2.92.56-7.77,3.88-7.82,2.66,0,2.86,4.73,3.45,7.62a168,168,0,0,1,3.19,32.33c.23,23.86.61,47.73-1.25,71.56-.8,3.78-1.41,7.62-2.46,11.33-.58,2.07-.61,5.47-3.22,5.45-2,0-2.38-3.15-2.83-5.22C246.13,457.4,245.43,453.94,244.7,450.48Z" transform="translate(-52.16 -33.93)"/><path class="cls-4" d="M162.41,200.09c-13.23,12.75-26.62,25.32-40.55,37.31-1.66-4.51-.7-9.18-.78-13.76-.16-9.26-.13-18.52,0-27.78.09-8.48,3.7-12,12-12.1,5.52,0,11,0,16.56,0,9,0,12.43,3.51,12.62,12.6C162.27,197.6,162.35,198.85,162.41,200.09Z" transform="translate(-52.16 -33.93)"/><path class="cls-3" d="M377.91,237.41c-8.21-4.86-14-12.5-21.2-18.56-6.65-5.61-12.68-11.95-19-18-.52-16.53,3.49-17.67,18.09-17.15,4.1.14,8.2,0,12.31,0,5.45.11,9.94,3.06,10.12,8.28C378.77,207.17,379.43,222.31,377.91,237.41Z" transform="translate(-52.16 -33.93)"/><path class="cls-3" d="M252.92,75.55c8.19-.08,16.39,5,22.68,13.93,2.16,3.06.49,4.63-1.41,6.76-2.16,2.45-3.65,1.55-5.76,0-12.18-8.87-25.14-8.77-37.53.25-1.76,1.28-3.1,2.4-4.88.21-1.56-1.92-4.49-3.09-2.27-6.56C229.9,80.51,238.5,75.51,252.92,75.55Z" transform="translate(-52.16 -33.93)"/></svg>